<svg fill="#9FA2B4" xmlns="http://www.w3.org/2000/svg" viewBox="0 0 48 48" id="money-idea"><path d="M24 24h-2c-.6 0-1 .4-1 1s.4 1 1 1h1v.5c0 .6.4 1 1 1s1-.4 1-1v-.7c1.2-.4 2-1.5 2-2.8 0-1.7-1.3-3-3-3-.6 0-1-.4-1-1s.4-1 1-1h2c.6 0 1-.4 1-1s-.4-1-1-1h-1v-.5c0-.6-.4-1-1-1s-1 .4-1 1v.7c-1.2.4-2 1.5-2 2.8 0 1.7 1.3 3 3 3 .6 0 1 .4 1 1s-.4 1-1 1zM9 22c.6 0 1-.4 1-1s-.4-1-1-1H7c-.6 0-1 .4-1 1s.4 1 1 1h2zm32 0c.6 0 1-.4 1-1s-.4-1-1-1h-2c-.6 0-1 .4-1 1s.4 1 1 1h2zM12.7 8.3c-.4-.4-1-.4-1.4 0s-.4 1 0 1.4l1.4 1.4c.2.2.5.3.7.3s.5-.1.7-.3c.4-.4.4-1 0-1.4l-1.4-1.4zm22.6 22.6c-.4-.4-1-.4-1.4 0s-.4 1 0 1.4l1.4 1.4c.2.2.5.3.7.3s.5-.1.7-.3c.4-.4.4-1 0-1.4l-1.4-1.4zM25 6V4c0-.6-.4-1-1-1s-1 .4-1 1v2c0 .6.4 1 1 1s1-.4 1-1zM11.3 33.7c.2.2.5.3.7.3s.5-.1.7-.3l1.4-1.4c.4-.4.4-1 0-1.4s-1-.4-1.4 0l-1.4 1.4c-.4.4-.4 1 0 1.4zm24-22.6 1.4-1.4c.4-.4.4-1 0-1.4s-1-.4-1.4 0l-1.4 1.4c-.4.4-.4 1 0 1.4.2.2.5.3.7.3s.5-.1.7-.3z"></path><path d="M11 21.1c0 2.3.7 4.6 1.9 6.6l.6.9c1.8 3 2.6 4.2 2.6 7.8v.5c0 .6.4 1 1 1 0 3.9 3.1 7 7 7s7-3.1 7-7c.6 0 1-.4 1-1 0-3.8.8-5.2 2.6-8.2.2-.4.5-.8.7-1.3 1.1-1.9 1.7-4.1 1.7-6.4 0-3.6-1.4-6.9-4-9.4s-6-3.8-9.5-3.6c-7.1.3-12.7 6.2-12.6 13.1zM24 43c-2.8 0-5-2.2-5-5h10c0 2.8-2.2 5-5 5zm-.4-33c3-.1 5.9 1 8.1 3.1C33.8 15.2 35 18 35 21c0 1.9-.5 3.8-1.4 5.4-.3.5-.5.9-.7 1.3-1.6 2.8-2.7 4.6-2.8 8.2H18c-.1-3.8-1.1-5.4-2.8-8.3l-.6-.9c-1-1.7-1.6-3.6-1.6-5.6-.1-5.9 4.7-10.9 10.6-11.1z"></path><path d="M24 30c5 0 9-4 9-9s-4-9-9-9-9 4-9 9 4 9 9 9zm0-16c3.9 0 7 3.1 7 7s-3.1 7-7 7-7-3.1-7-7 3.1-7 7-7z"></path></svg>